<svg width="474" height="114" viewBox="0 0 474 114" fill="none" xmlns="http://www.w3.org/2000/svg">
<g clip-path="url(#clip0_92_2)">
<mask id="mask0_92_2" style="mask-type:luminance" maskUnits="userSpaceOnUse" x="0" y="0" width="474" height="114">
<path d="M474 0H0V114H474V0Z" fill="white"/>
</mask>
<g mask="url(#mask0_92_2)">
<path d="M1.45782 74.6381C3.64551 76.7175 11.74 83.1744 25.5224 83.1744C40.9457 83.1744 50.6811 72.7776 50.6811 61.5053C50.6811 47.3875 38.4298 41.0398 27.8195 36.7717C18.9594 33.1602 14.9121 29.6581 14.9121 24.5144C14.9121 21.0123 18.3031 16.8536 24.538 16.8536C30.5541 16.8536 38.8674 22.3256 39.7424 22.8728C41.0551 23.7483 42.6958 22.8728 43.5709 21.5595L47.7277 15.3214C48.4934 14.227 48.1652 12.3666 47.0714 11.7099C44.8835 10.0683 36.3515 4.37744 25.1943 4.37744C7.80213 4.37744 0.582744 15.6498 0.582744 25.3899C0.582744 38.3038 10.8649 44.8702 21.1471 49.0291C30.3354 52.7501 35.0389 56.5805 35.0389 62.1619C35.0389 66.8679 30.7729 70.5888 25.0849 70.5888C17.9749 70.5888 9.11475 64.1319 8.56783 63.8035C7.58336 63.0375 5.72383 63.0375 4.84875 64.5696L0.910897 71.3549C-0.0735633 73.1059 0.473359 73.6531 1.45782 74.6381ZM71.5093 79.0157L55.9767 111.957C55.211 113.489 56.1954 114.912 57.8362 114.912H67.2433C68.1184 114.912 68.7747 114.255 69.1028 113.599L102.575 41.1493C103.34 39.7266 102.465 38.3038 100.715 38.3038H91.9642C90.6516 38.3038 89.8859 38.4133 89.339 39.5077L78.4005 64.2413H78.2911L67.2433 39.5077C66.9151 38.851 66.3682 38.3038 65.3837 38.3038H55.5391C53.8984 38.3038 53.0233 39.7266 53.6796 41.1493L71.5093 79.0157ZM110.001 80.0007C110.001 81.0951 110.985 82.08 112.079 82.08H120.939C122.033 82.08 123.018 81.0951 123.018 80.0007V55.9239C124.111 52.969 126.737 49.0291 132.206 49.0291C137.785 49.0291 140.3 52.6407 140.3 58.3315V80.0007C140.3 81.0951 141.175 82.08 142.379 82.08H150.583C151.676 82.08 152.661 81.0951 152.661 80.0007V57.7843C152.661 55.8144 152.551 53.6256 152.551 53.6256C152.551 53.6256 155.395 49.0291 161.74 49.0291C167.209 49.0291 169.944 52.6407 169.944 58.3315V80.0007C169.944 81.0951 170.819 82.08 172.022 82.08H180.882C182.085 82.08 182.96 81.0951 182.96 80.0007V59.0976C182.96 47.6064 177.819 37.2094 163.818 37.2094C155.942 37.2094 150.254 42.0248 148.395 43.9947C144.785 39.6171 140.41 37.2094 134.175 37.2094C126.409 37.2094 121.377 41.587 119.517 43.6664L117.986 39.5077C117.767 38.851 117.111 38.3038 116.126 38.3038H112.079C110.985 38.3038 110.001 39.1794 110.001 40.3832V80.0007ZM208.698 80.7667C210.229 81.6423 214.167 83.1744 218.433 83.1744C230.247 83.1744 240.091 73.1059 240.091 60.192C240.091 47.6064 231.013 37.2094 218.98 37.2094C211.87 37.2094 206.51 41.0398 204.87 43.2286L203.448 39.6171C203.12 38.7416 202.354 38.3038 201.588 38.3038H197.322C196.228 38.3038 195.244 39.1794 195.244 40.3832V112.833C195.244 113.927 196.228 114.912 197.322 114.912H206.073C208.042 114.912 208.698 114.146 208.698 112.833V80.7667ZM208.151 68.8378V55.705C208.807 53.4067 211.542 49.0291 217.121 49.0291C223.137 49.0291 227.293 54.0634 227.293 60.192C227.293 66.3207 222.809 71.3549 216.683 71.3549C211.214 71.3549 208.151 68.8378 208.151 68.8378ZM249.936 80.0007C249.936 81.0951 250.921 82.08 252.014 82.08H261.093C262.734 82.08 263.39 81.2045 263.39 80.0007V56.7994C264.484 52.3123 267.875 49.0291 272.907 49.0291C278.157 49.0291 281.548 52.8595 281.548 58.8787V80.0007C281.548 81.0951 282.423 82.08 283.627 82.08H292.487C293.581 82.08 294.565 81.0951 294.565 80.0007V58.9882C294.565 47.9347 288.877 37.2094 274.985 37.2094C269.844 37.2094 265.578 39.1794 263.39 40.821V7.5512C263.39 6.4568 262.406 5.47184 261.312 5.47184H252.014C250.921 5.47184 249.936 6.4568 249.936 7.5512V80.0007ZM303.484 60.192C303.484 72.7776 312.781 83.1744 325.907 83.1744C333.017 83.1744 338.596 80.5479 342.206 77.1552C343.3 76.2797 343.081 75.0759 342.315 74.3098L337.83 69.1661C337.065 68.2906 336.08 68.5095 334.986 69.1661C333.017 70.5888 329.845 71.9021 326.454 71.9021C320.11 71.9021 316.282 66.8679 315.953 62.3808H343.956C344.94 62.3808 345.925 61.6147 346.034 60.5203C346.144 59.7543 346.253 58.3315 346.253 57.5655C346.253 45.7459 337.065 37.2094 325.798 37.2094C312.781 37.2094 303.484 47.8253 303.484 60.192ZM316.938 54.72C317.485 50.5613 321.094 47.2781 325.47 47.2781C329.626 47.2781 333.127 50.6707 333.455 54.72H316.938ZM352.084 60.0826C352.084 72.6682 362.148 83.1744 374.508 83.1744C386.869 83.1744 396.932 72.6682 396.932 60.0826C396.932 47.7159 386.869 37.2094 374.508 37.2094C362.148 37.2094 352.084 47.7159 352.084 60.0826ZM364.007 60.0826C364.007 53.9539 368.602 49.0291 374.508 49.0291C380.306 49.0291 385.009 53.9539 385.009 60.0826C385.009 66.3207 380.306 71.3549 374.508 71.3549C368.602 71.3549 364.007 66.3207 364.007 60.0826ZM404.893 79.1251C407.19 80.8762 412.221 83.1744 419.441 83.1744C430.489 83.1744 436.833 77.0458 436.833 69.8227C436.833 61.2864 430.489 57.6749 422.066 54.3917C418.019 52.7501 416.05 52.0935 416.05 50.1235C416.05 48.7008 417.144 47.6064 419.769 47.6064C423.926 47.6064 428.848 49.9047 428.848 49.9047C429.723 50.233 430.926 50.1235 431.473 49.1386L434.208 43.557C434.755 42.4626 434.208 41.2587 433.223 40.6021C430.926 39.0699 426.223 37.2094 419.769 37.2094C408.612 37.2094 403.689 43.4475 403.689 50.1235C403.689 56.7994 407.627 61.2864 416.05 64.5696C421.847 66.8679 423.379 68.0717 423.379 70.0416C423.379 71.9021 421.847 72.7776 419.66 72.7776C414.628 72.7776 409.706 70.1511 409.706 70.1511C408.721 69.6039 407.627 69.8227 407.19 70.9171L404.236 76.8269C403.799 77.7024 404.236 78.5779 404.893 79.1251Z" fill="white"/>
<path d="M441.462 28.8488C441.462 29.0312 441.626 29.1954 441.809 29.1954H442.501C442.684 29.1954 442.848 29.0312 442.848 28.8488V17.6495H446.02C446.22 17.6495 446.366 17.4853 446.366 17.3029V16.774C446.366 16.5916 446.22 16.4274 446.02 16.4274H438.29C438.09 16.4274 437.944 16.5916 437.944 16.774V17.3029C437.944 17.4853 438.09 17.6495 438.29 17.6495H441.462V28.8488ZM447.203 28.7576C447.148 29.013 447.257 29.1954 447.531 29.1954H448.26C448.406 29.1954 448.57 29.0677 448.588 28.94L450.174 19.5464C450.192 19.5464 450.229 19.5464 450.247 19.5464L453.638 29.1772C453.675 29.2866 453.839 29.3778 453.948 29.3778H454.276C454.386 29.3778 454.55 29.2866 454.586 29.1772L457.939 19.5464C457.957 19.5464 457.993 19.5464 458.012 19.5464L459.634 28.94C459.671 29.0677 459.816 29.1954 459.962 29.1954H460.692C460.965 29.1954 461.074 29.013 461.02 28.7576L458.668 16.5004C458.632 16.3544 458.486 16.245 458.34 16.245H458.048C457.92 16.245 457.775 16.3362 457.738 16.4456L454.185 26.4959C454.149 26.4959 454.13 26.4959 454.094 26.4959L450.484 16.4456C450.448 16.3362 450.302 16.245 450.174 16.245H449.883C449.737 16.245 449.591 16.3544 449.554 16.5004L447.203 28.7576Z" fill="white"/>
</g>
</g>
<defs>
<clipPath id="clip0_92_2">
<rect width="474" height="114" fill="white"/>
</clipPath>
</defs>
</svg>
