<svg width="104" height="25" viewBox="0 0 104 25" fill="none" xmlns="http://www.w3.org/2000/svg">
<g clip-path="url(#clip0)">
<path d="M0.319859 16.368C0.799859 16.824 2.57586 18.24 5.59986 18.24C8.98386 18.24 11.1199 15.96 11.1199 13.488C11.1199 10.392 8.43186 8.99996 6.10386 8.06396C4.15986 7.27196 3.27186 6.50396 3.27186 5.37596C3.27186 4.60796 4.01586 3.69596 5.38386 3.69596C6.70386 3.69596 8.52786 4.89596 8.71986 5.01596C9.00786 5.20796 9.36786 5.01596 9.55986 4.72796L10.4719 3.35996C10.6399 3.11996 10.5679 2.71196 10.3279 2.56796C9.84786 2.20796 7.97586 0.959961 5.52786 0.959961C1.71186 0.959961 0.127859 3.43196 0.127859 5.56796C0.127859 8.39996 2.38386 9.83996 4.63986 10.752C6.65586 11.568 7.68786 12.408 7.68786 13.632C7.68786 14.664 6.75186 15.48 5.50386 15.48C3.94386 15.48 1.99986 14.064 1.87986 13.992C1.66386 13.824 1.25586 13.824 1.06386 14.16L0.199859 15.648C-0.0161408 16.032 0.103859 16.152 0.319859 16.368ZM15.6898 17.328L12.2818 24.552C12.1138 24.888 12.3298 25.2 12.6898 25.2H14.7538C14.9458 25.2 15.0898 25.056 15.1618 24.912L22.5058 9.02396C22.6738 8.71196 22.4818 8.39996 22.0978 8.39996H20.1778C19.8898 8.39996 19.7218 8.42396 19.6018 8.66396L17.2018 14.088H17.1778L14.7538 8.66396C14.6818 8.51996 14.5618 8.39996 14.3458 8.39996H12.1858C11.8258 8.39996 11.6338 8.71196 11.7778 9.02396L15.6898 17.328ZM24.1352 17.544C24.1352 17.784 24.3512 18 24.5912 18H26.5352C26.7752 18 26.9912 17.784 26.9912 17.544V12.264C27.2312 11.616 27.8072 10.752 29.0072 10.752C30.2312 10.752 30.7832 11.544 30.7832 12.792V17.544C30.7832 17.784 30.9752 18 31.2392 18H33.0392C33.2792 18 33.4952 17.784 33.4952 17.544V12.672C33.4952 12.24 33.4712 11.76 33.4712 11.76C33.4712 11.76 34.0952 10.752 35.4872 10.752C36.6872 10.752 37.2872 11.544 37.2872 12.792V17.544C37.2872 17.784 37.4792 18 37.7432 18H39.6872C39.9512 18 40.1432 17.784 40.1432 17.544V12.96C40.1432 10.44 39.0152 8.15996 35.9432 8.15996C34.2152 8.15996 32.9672 9.21596 32.5592 9.64796C31.7672 8.68796 30.8072 8.15996 29.4392 8.15996C27.7352 8.15996 26.6312 9.11996 26.2232 9.57596L25.8872 8.66396C25.8392 8.51996 25.6952 8.39996 25.4792 8.39996H24.5912C24.3512 8.39996 24.1352 8.59196 24.1352 8.85596V17.544ZM45.7903 17.712C46.1263 17.904 46.9903 18.24 47.9263 18.24C50.5183 18.24 52.6783 16.032 52.6783 13.2C52.6783 10.44 50.6863 8.15996 48.0463 8.15996C46.4863 8.15996 45.3103 8.99996 44.9503 9.47996L44.6383 8.68796C44.5663 8.49596 44.3983 8.39996 44.2303 8.39996H43.2943C43.0543 8.39996 42.8383 8.59196 42.8383 8.85596V24.744C42.8383 24.984 43.0543 25.2 43.2943 25.2H45.2143C45.6463 25.2 45.7903 25.032 45.7903 24.744V17.712ZM45.6703 15.096V12.216C45.8143 11.712 46.4143 10.752 47.6383 10.752C48.9583 10.752 49.8703 11.856 49.8703 13.2C49.8703 14.544 48.8863 15.648 47.5423 15.648C46.3423 15.648 45.6703 15.096 45.6703 15.096ZM54.8383 17.544C54.8383 17.784 55.0543 18 55.2943 18H57.2863C57.6463 18 57.7903 17.808 57.7903 17.544V12.456C58.0303 11.472 58.7743 10.752 59.8783 10.752C61.0303 10.752 61.7743 11.592 61.7743 12.912V17.544C61.7743 17.784 61.9663 18 62.2303 18H64.1743C64.4143 18 64.6303 17.784 64.6303 17.544V12.936C64.6303 10.512 63.3823 8.15996 60.3343 8.15996C59.2063 8.15996 58.2703 8.59196 57.7903 8.95196V1.65596C57.7903 1.41596 57.5743 1.19996 57.3343 1.19996H55.2943C55.0543 1.19996 54.8383 1.41596 54.8383 1.65596V17.544ZM66.5871 13.2C66.5871 15.96 68.6271 18.24 71.5071 18.24C73.0671 18.24 74.2911 17.664 75.0831 16.92C75.3231 16.728 75.2751 16.464 75.1071 16.296L74.1231 15.168C73.9551 14.976 73.7391 15.024 73.4991 15.168C73.0671 15.48 72.3711 15.768 71.6271 15.768C70.2351 15.768 69.3951 14.664 69.3231 13.68H75.4671C75.6831 13.68 75.8991 13.512 75.9231 13.272C75.9471 13.104 75.9711 12.792 75.9711 12.624C75.9711 10.032 73.9551 8.15996 71.4831 8.15996C68.6271 8.15996 66.5871 10.488 66.5871 13.2ZM69.5391 12C69.6591 11.088 70.4511 10.368 71.4111 10.368C72.3231 10.368 73.0911 11.112 73.1631 12H69.5391ZM77.2506 13.176C77.2506 15.936 79.4586 18.24 82.1706 18.24C84.8826 18.24 87.0906 15.936 87.0906 13.176C87.0906 10.464 84.8826 8.15996 82.1706 8.15996C79.4586 8.15996 77.2506 10.464 77.2506 13.176ZM79.8666 13.176C79.8666 11.832 80.8746 10.752 82.1706 10.752C83.4426 10.752 84.4746 11.832 84.4746 13.176C84.4746 14.544 83.4426 15.648 82.1706 15.648C80.8746 15.648 79.8666 14.544 79.8666 13.176ZM88.8372 17.352C89.3412 17.736 90.4452 18.24 92.0292 18.24C94.4532 18.24 95.8452 16.896 95.8452 15.312C95.8452 13.44 94.4532 12.648 92.6052 11.928C91.7172 11.568 91.2852 11.424 91.2852 10.992C91.2852 10.68 91.5252 10.44 92.1012 10.44C93.0132 10.44 94.0932 10.944 94.0932 10.944C94.2852 11.016 94.5492 10.992 94.6692 10.776L95.2692 9.55196C95.3892 9.31196 95.2692 9.04796 95.0532 8.90396C94.5492 8.56796 93.5172 8.15996 92.1012 8.15996C89.6532 8.15996 88.5731 9.52796 88.5731 10.992C88.5731 12.456 89.4372 13.44 91.2852 14.16C92.5572 14.664 92.8932 14.928 92.8932 15.36C92.8932 15.768 92.5572 15.96 92.0772 15.96C90.9732 15.96 89.8932 15.384 89.8932 15.384C89.6772 15.264 89.4372 15.312 89.3412 15.552L88.6932 16.848C88.5972 17.04 88.6932 17.232 88.8372 17.352Z" fill="white"/>
<path d="M96.8609 6.3265C96.8609 6.3665 96.8969 6.4025 96.9369 6.4025H97.0889C97.1289 6.4025 97.1649 6.3665 97.1649 6.3265V3.8705H97.8609C97.9049 3.8705 97.9369 3.8345 97.9369 3.7945V3.6785C97.9369 3.6385 97.9049 3.6025 97.8609 3.6025H96.1649C96.1209 3.6025 96.0889 3.6385 96.0889 3.6785V3.7945C96.0889 3.8345 96.1209 3.8705 96.1649 3.8705H96.8609V6.3265ZM98.1204 6.3065C98.1084 6.3625 98.1324 6.4025 98.1924 6.4025H98.3524C98.3844 6.4025 98.4204 6.3745 98.4244 6.3465L98.7724 4.2865C98.7764 4.2865 98.7844 4.2865 98.7884 4.2865L99.5324 6.3985C99.5404 6.4225 99.5764 6.4425 99.6004 6.4425H99.6724C99.6964 6.4425 99.7324 6.4225 99.7404 6.3985L100.476 4.2865C100.48 4.2865 100.488 4.2865 100.492 4.2865L100.848 6.3465C100.856 6.3745 100.888 6.4025 100.92 6.4025H101.08C101.14 6.4025 101.164 6.3625 101.152 6.3065L100.636 3.6185C100.628 3.5865 100.596 3.5625 100.564 3.5625H100.5C100.472 3.5625 100.44 3.5825 100.432 3.6065L99.6524 5.8105C99.6444 5.8105 99.6404 5.8105 99.6324 5.8105L98.8404 3.6065C98.8324 3.5825 98.8004 3.5625 98.7724 3.5625H98.7084C98.6764 3.5625 98.6444 3.5865 98.6364 3.6185L98.1204 6.3065Z" fill="white"/>
</g>
<defs>
<clipPath id="clip0">
<rect width="104" height="25" fill="white"/>
</clipPath>
</defs>
</svg>
