<svg width="133" height="32" viewBox="0 0 133 32" fill="none" xmlns="http://www.w3.org/2000/svg">
<g clip-path="url(#clip0_67_2190)">
<mask id="mask0_67_2190" style="mask-type:luminance" maskUnits="userSpaceOnUse" x="0" y="0" width="133" height="32">
<path d="M133 0H0V32H133V0Z" fill="white"/>
</mask>
<g mask="url(#mask0_67_2190)">
<path d="M0.409257 20.951C1.0231 21.5347 3.29433 23.3472 7.16156 23.3472C11.4892 23.3472 14.2208 20.4288 14.2208 17.2646C14.2208 13.3017 10.7833 11.52 7.8061 10.3219C5.32003 9.30812 4.18441 8.32508 4.18441 6.88124C4.18441 5.8982 5.13587 4.73084 6.88533 4.73084C8.57341 4.73084 10.906 6.26684 11.1516 6.42044C11.5199 6.6662 11.9803 6.42044 12.2258 6.0518L13.3921 4.30076C13.6069 3.99356 13.5149 3.47132 13.2079 3.287C12.5941 2.8262 10.2001 1.22876 7.06949 1.22876C2.18941 1.22876 0.163719 4.39292 0.163719 7.127C0.163719 10.752 3.0488 12.5952 5.93387 13.7625C8.51203 14.807 9.8318 15.8822 9.8318 17.4489C9.8318 18.7699 8.6348 19.8144 7.0388 19.8144C5.0438 19.8144 2.55772 18.0019 2.40426 17.9097C2.12803 17.6947 1.60626 17.6947 1.36072 18.1248L0.255796 20.0294C-0.0204351 20.5209 0.133026 20.6745 0.409257 20.951ZM20.065 22.1798L15.7067 31.4265C15.4918 31.8566 15.7681 32.256 16.2285 32.256H18.868C19.1135 32.256 19.2977 32.0716 19.3898 31.8873L28.7816 11.5507C28.9965 11.1513 28.7509 10.752 28.2598 10.752H25.8045C25.4361 10.752 25.2213 10.7827 25.0678 11.0899L21.9986 18.0326H21.9679L18.868 11.0899C18.7759 10.9056 18.6225 10.752 18.3462 10.752H15.5839C15.1235 10.752 14.878 11.1513 15.0621 11.5507L20.065 22.1798ZM30.8654 22.4563C30.8654 22.7635 31.1416 23.04 31.4485 23.04H33.9346C34.2415 23.04 34.5177 22.7635 34.5177 22.4563V15.6979C34.8247 14.8684 35.5613 13.7625 37.0959 13.7625C38.6612 13.7625 39.3671 14.7763 39.3671 16.3737V22.4563C39.3671 22.7635 39.6127 23.04 39.9503 23.04H42.2522C42.5591 23.04 42.8354 22.7635 42.8354 22.4563V16.2201C42.8354 15.6672 42.8047 15.0528 42.8047 15.0528C42.8047 15.0528 43.6027 13.7625 45.3828 13.7625C46.9174 13.7625 47.6847 14.7763 47.6847 16.3737V22.4563C47.6847 22.7635 47.9303 23.04 48.2679 23.04H50.754C51.0916 23.04 51.3371 22.7635 51.3371 22.4563V16.5888C51.3371 13.3632 49.8946 10.4448 45.966 10.4448C43.7561 10.4448 42.1601 11.7964 41.6384 12.3494C40.6255 11.1206 39.3978 10.4448 37.6484 10.4448C35.4692 10.4448 34.0574 11.6736 33.5356 12.2572L33.1059 11.0899C33.0445 10.9056 32.8604 10.752 32.5841 10.752H31.4485C31.1416 10.752 30.8654 10.9977 30.8654 11.3356V22.4563ZM58.5589 22.6713C58.9886 22.9171 60.0935 23.3472 61.2905 23.3472C64.6053 23.3472 67.3676 20.5209 67.3676 16.896C67.3676 13.3632 64.8201 10.4448 61.444 10.4448C59.449 10.4448 57.9451 11.52 57.4847 12.1344L57.0857 11.1206C56.9936 10.8748 56.7787 10.752 56.5639 10.752H55.3669C55.06 10.752 54.7838 10.9977 54.7838 11.3356V31.6723C54.7838 31.9795 55.06 32.256 55.3669 32.256H57.8223C58.3748 32.256 58.5589 32.0409 58.5589 31.6723V22.6713ZM58.4054 19.3228V15.6364C58.5896 14.9913 59.3569 13.7625 60.9222 13.7625C62.6103 13.7625 63.7766 15.1756 63.7766 16.896C63.7766 18.6163 62.5182 20.0294 60.7994 20.0294C59.2648 20.0294 58.4054 19.3228 58.4054 19.3228ZM70.1299 22.4563C70.1299 22.7635 70.4061 23.04 70.7131 23.04H73.2605C73.7209 23.04 73.9051 22.7942 73.9051 22.4563V15.9436C74.212 14.6841 75.1634 13.7625 76.5753 13.7625C78.0485 13.7625 79 14.8377 79 16.5273V22.4563C79 22.7635 79.2455 23.04 79.5831 23.04H82.0692C82.3761 23.04 82.6524 22.7635 82.6524 22.4563V16.558C82.6524 13.4553 81.0564 10.4448 77.1584 10.4448C75.7159 10.4448 74.5189 10.9977 73.9051 11.4585V2.11964C73.9051 1.81244 73.6288 1.53596 73.3219 1.53596H70.7131C70.4061 1.53596 70.1299 1.81244 70.1299 2.11964V22.4563ZM85.1548 16.896C85.1548 20.4288 87.7637 23.3472 91.4467 23.3472C93.4417 23.3472 95.007 22.6099 96.0199 21.6576C96.3268 21.4118 96.2654 21.0739 96.0506 20.8588L94.7922 19.415C94.5774 19.1692 94.3011 19.2307 93.9942 19.415C93.4417 19.8144 92.5517 20.183 91.6002 20.183C89.82 20.183 88.7458 18.7699 88.6537 17.5104H96.511C96.7872 17.5104 97.0634 17.2953 97.0941 16.9881C97.1248 16.7731 97.1555 16.3737 97.1555 16.1587C97.1555 12.8409 94.5774 10.4448 91.416 10.4448C87.7637 10.4448 85.1548 13.4246 85.1548 16.896ZM88.93 15.36C89.0834 14.1926 90.0963 13.271 91.324 13.271C92.4903 13.271 93.4724 14.2233 93.5645 15.36H88.93ZM98.7918 16.8652C98.7918 20.398 101.615 23.3472 105.084 23.3472C108.552 23.3472 111.376 20.398 111.376 16.8652C111.376 13.3939 108.552 10.4448 105.084 10.4448C101.615 10.4448 98.7918 13.3939 98.7918 16.8652ZM102.137 16.8652C102.137 15.1449 103.426 13.7625 105.084 13.7625C106.71 13.7625 108.03 15.1449 108.03 16.8652C108.03 18.6163 106.71 20.0294 105.084 20.0294C103.426 20.0294 102.137 18.6163 102.137 16.8652ZM113.609 22.2105C114.254 22.702 115.666 23.3472 117.691 23.3472C120.791 23.3472 122.571 21.6268 122.571 19.5993C122.571 17.2032 120.791 16.1894 118.428 15.2678C117.292 14.807 116.74 14.6227 116.74 14.0697C116.74 13.6704 117.047 13.3632 117.783 13.3632C118.95 13.3632 120.331 14.0083 120.331 14.0083C120.576 14.1004 120.914 14.0697 121.067 13.7932L121.835 12.2265C121.988 11.9193 121.835 11.5814 121.559 11.3971C120.914 10.967 119.594 10.4448 117.783 10.4448C114.653 10.4448 113.272 12.1958 113.272 14.0697C113.272 15.9436 114.377 17.2032 116.74 18.1248C118.367 18.7699 118.796 19.1078 118.796 19.6608C118.796 20.183 118.367 20.4288 117.753 20.4288C116.341 20.4288 114.96 19.6915 114.96 19.6915C114.684 19.5379 114.377 19.5993 114.254 19.9065L113.425 21.5654C113.302 21.8112 113.425 22.0569 113.609 22.2105Z" fill="#222731"/>
<path d="M123.87 8.09834C123.87 8.14954 123.916 8.19562 123.967 8.19562H124.161C124.213 8.19562 124.259 8.14954 124.259 8.09834V4.95466H125.149C125.205 4.95466 125.246 4.90858 125.246 4.85738V4.7089C125.246 4.6577 125.205 4.61162 125.149 4.61162H122.98C122.923 4.61162 122.883 4.6577 122.883 4.7089V4.85738C122.883 4.90858 122.923 4.95466 122.98 4.95466H123.87V8.09834ZM125.481 8.07274C125.465 8.14442 125.496 8.19562 125.573 8.19562H125.777C125.818 8.19562 125.864 8.15978 125.869 8.12394L126.314 5.48714C126.319 5.48714 126.33 5.48714 126.335 5.48714L127.286 8.1905C127.297 8.22122 127.343 8.24682 127.373 8.24682H127.465C127.496 8.24682 127.542 8.22122 127.552 8.1905L128.493 5.48714C128.498 5.48714 128.509 5.48714 128.514 5.48714L128.969 8.12394C128.979 8.15978 129.02 8.19562 129.061 8.19562H129.266C129.343 8.19562 129.373 8.14442 129.358 8.07274L128.698 4.6321C128.688 4.59114 128.647 4.56042 128.606 4.56042H128.524C128.488 4.56042 128.447 4.58602 128.437 4.61674L127.44 7.43786C127.43 7.43786 127.424 7.43786 127.414 7.43786L126.401 4.61674C126.391 4.58602 126.35 4.56042 126.314 4.56042H126.233C126.192 4.56042 126.151 4.59114 126.14 4.6321L125.481 8.07274Z" fill="#222731"/>
</g>
</g>
<defs>
<clipPath id="clip0_67_2190">
<rect width="133" height="32" fill="white"/>
</clipPath>
</defs>
</svg>
